<svg xmlns="http://www.w3.org/2000/svg" width="1280" height="720">
    <path d="M446.602 41.746c.69.62.69.62 1.4 1.25v2l3 1c1.52 2 2.86 3.95 4.19 6.07.39.61.78 1.23 1.18 1.87 3.31 5.31 6.15 10.81 8.8 16.47 1.9 3.99 4.07 7.46 6.7 11.01 1.43 2.01 2.48 4.09 3.5 6.33 3.28 6.8 7.45 12.99 11.63 19.25v3l3 1c1.29 1.69 2.51 3.43 3.69 5.19 3.09 4.4 5.94 7.3 10.36 10.28 3 2.36 5.08 5.31 7.31 8.39 2.76 3.62 4.97 6.48 9.64 7.14v2c10.53 1.67 20.95 2.28 31.61 2.61 21.16.68 42.32 1.9 63.45 3.39 1.05.07 2.09.15 3.16.22 9.92.74 19.42 2.12 28.84 5.35 9.22 2.96 18.31 3.32 27.94 3.43v-2c1.5-.93 1.5-.93 3.56-2 5.41-3.27 8.1-7.74 11.44-13 1.31-2.02 2.63-4.04 3.95-6.05.9-1.37 1.79-2.74 2.67-4.12 1.08-1.64 2.22-3.24 3.38-4.83h2c.1-.56.21-1.13.31-1.71.81-2.69 2.04-4.59 3.63-6.91.52-.78 1.05-1.55 1.59-2.35 1.47-2.03 1.47-2.03 3.47-4.03.69-1.17 1.36-2.36 2-3.56 2-3.44 2-3.44 4-4.44.89-1.31 1.74-2.64 2.56-4 2.93-4.53 6.35-8.09 10.29-11.76 2.26-2.2 2.26-2.2 3.96-5.05 2.75-4.01 6.05-7.1 9.56-10.44 5.63-5.47 10.09-10.69 13.63-17.75 2.41-4.18 4.62-7.88 9.12-10 2.07-.83 2.07-.83 2.63-3 1.25-2 1.25-2 4.69-3.5 5.67-1.17 10.54.93 15.56 3.5 2.87 2.44 2.87 2.44 5 5 .84.77 1.69 1.53 2.56 2.32 4.81 5.3 7.07 11.98 9.2 18.73.24.73.47 1.46.72 2.21.49 1.53.98 3.07 1.46 4.6.75 2.34 1.5 4.67 2.26 7.01.48 1.5.96 2.99 1.44 4.49.33 1.04.33 1.04.67 2.1 1.11 3.49 2.01 6.94 2.69 10.54.77 2.51 1.56 5.01 2.37 7.5 1.97 6.15 3.57 12.3 4.95 18.61.78 3.32 1.8 6.5 2.93 9.71 1.09 3.17 1.99 6.4 2.9 9.63.86 2.59 1.93 5.04 3.02 7.54 1.63 3.96 2.88 8.06 4.2 12.14 2.91 8.85 6.07 17.55 9.57 26.19 1.67 4.24 2.54 8.17 3.06 12.68.2.64.4 1.27.6 1.92.5 2.62.01 4.14-.85 6.65-.25.76-.51 1.53-.77 2.31-1.07 2.31-1.97 3.57-3.98 5.12-1.94.52-1.94.52-4 .69-.68.07-1.36.13-2.06.2-7.67.45-14.76-.01-20.94-4.89-8.31-7.51-10.66-18.75-13.75-29.12-2.57-8.48-5.22-16.92-8.06-25.31-2.44-7.21-4.8-14.45-7.07-21.71-.25-.79-.5-1.59-.75-2.4-1.24-3.96-2.47-7.92-3.69-11.88-.45-1.46-.91-2.92-1.36-4.37-.21-.67-.41-1.34-.62-2.03-1-3.21-2.07-6.23-3.7-9.18-2.2-.59-2.2-.59-5 0-1.99 1.7-3.71 3.52-5.45 5.47-1.55 1.53-1.55 1.53-3.55 1.53-.04.68-.08 1.37-.13 2.07-1.07 3.61-2.88 5.55-5.4 8.29-1.67 1.79-1.67 1.79-3.47 4.64h-3c-.09.71-.17 1.42-.26 2.16-.91 3.49-2.48 5.55-4.68 8.41-2.34 3.06-4.48 5.91-6.06 9.43h-2l-.22 2.11c-.99 3.67-2.93 6.25-5.22 9.21-.41.55-.82 1.1-1.24 1.66-1.05 1.39-2.18 2.71-3.32 4.02h-2c-.06 1.02-.06 1.02-.13 2.07-1.26 4.24-3.92 6.72-6.87 9.93-1.13 1.34-2.25 2.67-3.38 4-6.36 7.25-14.05 13.08-21.62 19-.65.56-1.3 1.12-1.97 1.69-4.74 3.06-11.72 2.56-17.22 2.19-3.93-.9-6.39-2.16-9.66-4.43-5.57-3.75-9.91-5.94-16.59-7.07-.68-.12-1.37-.24-2.07-.36-6.26-1.06-12.56-1.81-18.87-2.49-3.68-.54-7.06-1.47-10.62-2.53-7.42-1.55-14.83-2.31-22.38-2.75-2.62-.25-2.62-.25-4.62-1.25-2.16-.09-4.31-.13-6.47-.13h-5.96c-2.06.01-4.12 0-6.18 0H564.862c-2.81-.06-2.81-.06-4.86 1.13-3.11.32-6.23.51-9.35.72-2.57-.01-2.57-.01-3.65 1.28-20.36 4.33-20.36 4.33-27 1-1.86-.15-1.86-.15-3.75-.31-6.91-.83-10.83-5.02-15.15-10.1-1.1-1.59-1.1-1.59-1.1-3.59h-2a104.59 104.59 0 0 1-4.38-5.68c-3.8-5.21-7.67-10.29-11.93-15.13-.61-.69-1.21-1.38-1.84-2.08-1.2-1.37-2.4-2.73-3.61-4.08-3.73-4.21-7.25-8.53-10.68-12.99-1.24-1.62-2.52-3.21-3.81-4.79-1.81-2.32-3.28-4.69-4.75-7.25-.48-.76-.95-1.52-1.44-2.31-1.56-2.69-1.56-2.69-2.43-4.6-2.31-5.1-4.67-7.72-9.13-11.09l-1-2c-2.25-.5-2.25-.5-5 0-3.95 2.94-6.7 6.7-9 11-.9 1.61-1.79 3.21-2.69 4.82-.77 1.39-1.54 2.79-2.31 4.18h-2v4h-2c-.1.56-.21 1.12-.31 1.69-.83 2.79-2.03 4.93-3.69 7.31h-2c-.08.73-.17 1.45-.25 2.19-.91 3.41-2.54 5.07-4.75 7.81-1.18 1.94-2.33 3.9-3.44 5.88-2.64 4.59-5.27 8.98-8.56 13.12h-2c-.1.73-.19 1.45-.29 2.2-.83 3.26-2.1 5.07-4.15 7.74-.71.95-1.42 1.9-2.16 2.87-1.19 1.58-1.19 1.58-2.4 3.19-1.81 2.49-3.59 5-5.38 7.5-.43.6-.85 1.2-1.3 1.82-1.81 2.54-3.59 5.09-5.32 7.68h-2c-.13.6-.25 1.2-.38 1.82-.62 2.18-.62 2.18-2.62 5.18h-3c-.08.73-.17 1.45-.25 2.19-1.46 5.45-5.8 8.98-9.75 12.81l-3-1 1 3c-2.15 1.67-4.32 3.31-6.5 4.94-.6.47-1.2.94-1.82 1.42-4.61 3.41-7.95 4.41-13.68 4.64-5.28-.84-7.58-3.35-10.8-7.34-3.22-4.45-2.83-9.37-2.2-14.66 1.32-3.55 3.08-6.73 5-10 .68-1.32 1.35-2.66 2-4 3.02-6.16 6.38-11.59 10.54-17.03 1.58-2.07 1.58-2.07 3.21-4.84 2.16-3 4.41-5.31 7.06-7.88 4.8-4.72 8.55-9.6 12.19-15.25.76-1.17 1.52-2.35 2.29-3.53 1.54-2.38 3.07-4.77 4.6-7.17 5.68-8.87 5.68-8.87 8.11-11.3.43-.86.86-1.73 1.31-2.62 1.99-3.97 4.3-7.64 6.69-11.38 6.4-10.04 6.4-10.04 11-21l2-2c.7-1.65 1.36-3.32 2-5 .99-2.17 1.92-3.9 3.44-5.75 1.85-2.66 2.79-5.32 3.87-8.37.75-2.05 1.69-3.93 2.69-5.88 1.81-3.99 3.34-7.65 4-12h2c-.04-1.07-.08-2.14-.13-3.25.2-6.04 2.91-9.12 7.15-13.19 7.9-6.2 18.8-3.96 26.58 1.19Zm269.4 138.25 1 3 1-3h-2Zm-7 7v3l2-3h-2ZM372 544.313c6.75 3.04 11.83 8.53 17 13.69.71.69 1.41 1.38 2.14 2.1 2.46 2.42 4.86 4.89 7.24 7.4 3.66 3.48 7.55 6.5 11.62 9.5.55.41 1.1.82 1.67 1.24 16.47 12.18 34.85 20.4 54.45 26.19 2.02.61 4.04 1.22 6.06 1.82.99.3 1.97.59 2.98.89 5.27 1.59 10.51 3.25 15.76 4.91 4 1.23 7.97 2.15 12.08 2.95v2c1.72.18 1.72.18 3.47.36 4.46.56 8.66 1.64 12.98 2.89.77.22 1.54.43 2.34.66 2.45.69 4.89 1.39 7.33 2.09 2.46.7 4.91 1.39 7.36 2.09 1.52.43 3.04.86 4.56 1.3 3.97 1.12 7.88 1.96 11.96 2.61 1.89.46 3.77.94 5.64 1.43 5.98 1.52 11.95 2.64 18.05 3.57 1.09.16 2.18.33 3.3.5 15.83 2.32 31.82 3.63 47.77 4.77 1.17.08 2.33.16 3.53.25 1.55.1 1.55.1 3.12.21 2.59.27 2.59.27 5.59 1.27 1.35.09 2.71.13 4.06.13.79 0 1.59 0 2.4.01.84-.01 1.68-.01 2.54-.02.85 0 1.7 0 2.58-.01 10.38.76 10.38.76 19.42-2.11 2.33-.34 4.67-.67 7-1l1-1c2.33-.37 4.66-.7 7-1v-1c.71-.21 1.42-.41 2.15-.62l2.79-.82 2.77-.81c2.23-.54 2.23-.54 3.29-1.75 2.33-.34 4.67-.67 7-1l1-1c2-.04 4-.05 6 0v-2h6v-2c3.05-1.72 5.67-2.38 9.12-2.88 4.89-.81 9.04-2.29 13.58-4.24 3.12-1.2 5.98-1.59 9.3-1.88v-2c.74-.13 1.49-.25 2.25-.38 2.57-.58 4.46-1.36 6.75-2.62 2.71-1.36 5.01-1.07 8-1v-2c3.83-1.8 6.78-2.2 11-2v-2h5v-2c2.91-2.04 4.4-3 8-3l1-3c1.95-1.41 3.96-2.73 6-4 4.15-2.72 4.15-2.72 8.06-5.75 2.45-1.58 4.09-1.49 6.94-1.25v-2c6.57-1.81 10.96.46 16.71 3.37 9.24 5.27 14.3 12.46 17.29 22.63.87 6.56-1.25 10.8-5 16-4.22 4.82-8.4 8.84-14 12l-2.45 1.56c-8.23 4.63-18.11 6.07-27.34 7.63-3.2.8-4.71 1.76-7.21 3.81-2.75.19-2.75.19-5 0v2c-1.15.49-2.31.99-3.5 1.5-4.56 2.01-8.99 4.24-13.44 6.5-5.15 2.6-10.27 5.04-15.67 7.08a99.44 99.44 0 0 0-5 2.09c-6.23 2.78-12.49 4.83-19.08 6.58-.78.21-1.56.42-2.37.64a84.2 84.2 0 0 1-14.2 2.37c-1.77.06-1.77.06-2.74 1.24-6.45 1.73-12.98 2.34-19.63 2.75-2.32-.01-2.32-.01-3.37 1.25-3 .15-5.99.23-9 .28-.9.02-1.8.04-2.74.05-2.9.06-5.8.12-8.7.17-3.81.07-7.62.14-11.43.22-.88.01-1.77.02-2.68.04-4.36-.04-4.36-.04-8.45 1.24-4.56.21-9.13.18-13.7.18-2.26 0-4.53.02-6.79.04-15.22.06-15.22.06-22.51-2.22l-1-1a87.21 87.21 0 0 0-4.19-.94c-3.71-.79-7.21-1.86-10.81-3.06-4.95-1.3-9.93-2.16-15-2.88-9.96-1.48-19.77-3.86-29.44-6.69-5.61-1.59-11.31-2.41-17.07-3.3-4.73-.76-9.07-1.81-13.56-3.52-2.17-.69-4.16-.88-6.43-1.05-3.24-.27-5.63-.94-8.55-2.36-5.41-2.49-10.98-4.27-16.64-6.08-9.02-2.94-17.65-6.23-26.31-10.12-1.7-.7-3.41-1.39-5.12-2.07-.8-.31-1.6-.63-2.42-.96-1.69-.67-3.38-1.33-5.07-1.98-13.75-5.45-29.8-12.41-40.39-22.99a354.98 354.98 0 0 0-19.85-16.26c-2.21-1.79-4.16-3.72-6.15-5.74-1.26-1.14-2.53-2.27-3.81-3.38-.69-.6-1.38-1.2-2.1-1.83a221.2 221.2 0 0 0-4.06-3.4c-4.44-3.65-7.18-6.84-9.03-12.39l-2-1c-2.93-6.68-5.21-13.08-2.88-20.25 4.47-9.99 14.5-9.52 23.88-6.44ZM601 416c14.46 1.2 23.39 3.84 33.97 14.4 4.37 5.6 4.83 11.76 4.03 18.6-1.47 5.63-3.71 10.64-6.69 15.62-2.29 3.89-2.95 7.15-3.17 11.63C629 478 629 478 628 479c-.1 1.66-.13 3.33-.12 5-.01.91-.01 1.81-.01 2.75-.12 2.22-.12 2.22 1.13 3.25.13 1.5.23 3 .31 4.5.6 6.67 3 11.97 6.69 17.5 1.49.5 1.49.5 3 1 1.49.99 1.49.99 3 2 2.48.28 2.48.28 5.12.19l2.7-.02c2.16.07 2.16.07 3.18-1.17 2.57-.29 5.11-.52 7.69-.69.71-.06 1.41-.12 2.14-.18 5.89-.4 10.24.21 14.86 4.18 5.6 6.51 7.8 12.51 7.63 21.03-.59 4.91-3.1 7.51-6.57 10.78-10.88 7.42-21.83 8.91-34.75 7.88-12.91-2.92-23.95-11.67-33-21-2.18-1.38-2.18-1.38-5.38.11-1.4.54-2.79 1.09-4.18 1.64-2.81 1.1-5.62 2.18-8.44 3.25-.71.28-1.41.57-2.14.86-6.05 2.26-11.57 2.59-17.98 2.52l-2.88.03c-8.41-.03-14.27-2.17-21-7.41-4.33-4.94-5.72-10.54-6-17 .84-4.08 2.75-7.38 6-10 2.23-.48 2.23-.48 4.62-.62 2.99.01 2.99.01 5.38-1.38 1.48-.13 2.96-.23 4.44-.31 7.64-.7 14.36-2.87 19.56-8.69h3c.1-.58.21-1.15.31-1.75.69-2.25.69-2.25 2.25-4 2.13-3.33 1.93-6.46 1.44-10.25-2.51-9.02-10.18-15.27-16.75-21.56-6.06-6.02-10.96-13.62-11.25-22.44 1.03-2.62 1.99-3.99 4-6 .43-.78.87-1.57 1.31-2.38 3.17-4.92 7.51-7.15 12.69-9.62l1-1c2.33-.04 4.67-.04 7 0v-2h13v-2Zm4 117 1 2 2-2h-3ZM220.875 318.375c8.81 1.67 17.6 3.19 26.47 4.44 6.44.93 12.78 2.2 19.14 3.52 13.15 2.69 26.36 4.76 39.64 6.73 12.78 1.91 25.55 3.83 38.29 6 .9.15 1.8.3 2.73.46 33.12 5.76 33.12 5.76 41.79 16.85 3.82 6.11 6.93 13.61 5.38 20.81-1.5 3.21-2.18 4.21-5.32 5.81-14.4 4.87-29.58.78-44-2-.95-.17-1.91-.35-2.9-.54-.9-.17-1.81-.35-2.74-.53-1.22-.23-1.22-.23-2.47-.46-1.89-.47-1.89-.47-2.89-1.47a87.35 87.35 0 0 0-4-.37c-3.37-.33-6.25-.96-9.43-2.13-4.2-1.52-8.16-2-12.6-2.28-1.97-.22-1.97-.22-2.97-1.22-1.49-.2-2.99-.36-4.5-.5-4.38-.38-4.38-.38-5.5-1.5-1.43-.16-2.87-.27-4.31-.37-3.74-.34-7.19-.94-10.81-1.94-6.21-1.65-12.48-2.67-18.81-3.69-7.37-1.18-14.61-2.49-21.86-4.28-4.11-.92-8.24-1.6-12.39-2.28-.78-.12-1.56-.25-2.36-.38-3.17-.52-6.34-1.04-9.51-1.55-7.24-1.28-15.36-3.32-19.95-9.51v-3h-2c-2.51-6.69-5.11-13.73-3.24-20.87 6.76-11.51 20.37-5.83 31.12-3.75ZM1068.813 340.813l2.49-.04h2.4c.73-.01 1.46-.01 2.21-.02 5.09.6 7.67 3.67 10.76 7.45 2.44 3.3 3.41 5.55 3.14 9.67-1.42 5.46-2.51 9.62-7.38 12.82-1.46.8-2.94 1.57-4.43 2.31-.69.35-1.37.69-2.08 1.05-10.95 4.94-24.06 7.12-35.99 7.77-2.01.07-2.01.07-3.93 1.18-1.64.31-3.29.58-4.94.83-1.03.16-2.05.31-3.12.47-1.11.17-2.23.34-3.38.51-1.71.26-1.71.26-3.46.53-6.27.94-12.53 1.87-18.8 2.77-1.85.27-1.85.27-3.73.55-2.4.35-4.8.69-7.2 1.03-1.08.16-2.17.31-3.28.48-.96.13-1.92.27-2.91.41-2.15.2-2.15.2-3.18 1.42-2.32.32-4.64.51-6.97.72-2.02.07-2.02.07-3.03 1.28-2.06.32-4.12.51-6.19.72-1.83.1-1.83.1-2.81 1.28-3.36.32-6.73.51-10.1.72-2.79-.04-2.79-.04-3.9 1.28-3.1.32-6.2.51-9.31.72-2.61-.02-2.61-.02-3.69 1.28-2.31.21-4.63.37-6.94.5-4.7.1-4.7.1-9.06 1.5-4.52.33-9.04.32-13.57.37l-3.79.12c-7.54.07-13.75-.38-19.64-5.49-2.06-4.11-2.13-6.24-1.38-10.75 1.42-3.34 2.19-4.61 5.38-6.25h3v-2h5v-2c3.4-2.1 6.05-2.18 10-2v-2l5.95-.69c2.24-.28 2.24-.28 5.05-1.31 2-.04 4-.05 6 0v-2c.78-.06 1.56-.12 2.37-.19 1.52-.12 1.52-.12 3.06-.25 1.01-.08 2.02-.16 3.06-.25 2.44-.04 2.44-.04 3.51-1.31 2.32-.32 4.64-.51 6.97-.72 2.02-.07 2.02-.07 3.03-1.28 3-.52 5.99-1 9-1.44 5.68-.84 11.29-1.78 16.89-3.08 4.16-.95 8.35-1.71 12.56-2.42 1.01-.17 2.02-.35 3.07-.52 2.12-.36 4.24-.72 6.37-1.08 1.01-.17 2.02-.35 3.06-.53 1.38-.23 1.38-.23 2.79-.47 2.28-.37 2.28-.37 4.26-1.46 2.56-.31 5.12-.51 7.69-.72 2.33-.15 2.33-.15 4.31-1.28 2.33-.31 4.66-.51 7-.72 1.99-.08 1.99-.08 3-1.28 1.52-.07 3.04-.09 4.56-.07l2.5.03c.64.01 1.28.03 1.94.04v-2h9v-2h9v-2l6.15-.69c8.77-1.5 8.77-1.5 11.66-1.5ZM897 437c18.32-.65 35.92 1.35 54 4 2.02.29 4.03.58 6.05.86 2.63.38 5.25.75 7.88 1.14 5.04.73 10.07 1.37 15.13 1.94 17.86 2.04 35.59 4.26 52.94 9.06.93.17 1.86.35 2.82.52 2.64.58 3.34 1.56 5.18 3.48l2.39.77c4.85 2.28 6.57 7.49 8.61 12.23.61 2.41.84 4.51 1 7l1 1c.48 5.06-.54 8.57-3 13-3.4 3.4-6.45 4.34-11.12 4.69-6.89-.21-12.84-2.58-19.21-4.97-6.84-2.55-13.48-4.07-20.68-5.21C997 486 997 486 995 485c-1.83-.28-3.67-.51-5.5-.72-1.13-.13-2.25-.25-3.41-.38-1.81-.2-1.81-.2-3.65-.4-1.84-.2-1.84-.2-3.72-.41-6.63-.71-13.25-1.33-19.91-1.65-14.73-.74-28.51-2.66-42.2-8.41-2.88-1.14-5.78-2.05-8.73-2.97-8.18-2.68-15.88-6.75-20.26-14.5-1.38-5.69.99-10.49 3.38-15.56 1-1 1-1 3.56-1.06l2.44.06v-2ZM362 422c9.08-.87 16.38-.58 24.62 3.62.98.5.98.5 1.97 1.01 6.23 3.43 11.29 7.72 13.85 14.49.33.83.65 1.66.99 2.51.86 3.6-.06 5.63-1.68 8.87-3.35 4.79-7.11 7.14-12.75 8.5-2.87.32-5.73.56-8.61.75-2.4.11-2.4.11-4.39 1.25-2.59.31-5.18.51-7.79.72-2.18.05-2.18.05-3.21 1.28-1.43.16-2.87.28-4.31.38-4.04.35-7.77 1.08-11.69 2.12-4.73 1.26-9.26 1.96-14.14 2.29-1.87.02-1.87.02-2.86 1.21-2.33.33-4.67.67-7 1l-1 1c-2.58.32-5.16.51-7.75.72-2.22.04-2.22.04-3.25 1.28-1.47.21-2.95.37-4.44.5-3.4.29-3.4.29-6.56 1.5-1.33.18-2.66.32-4 .44-3.43.34-6.75.86-10.12 1.56-11.89 2.44-23.83 4.15-34.88-2-5.42-4.23-7.92-8.83-8.85-15.61-.3-4.76-.29-8.08 2.91-11.77.64-.53 1.28-1.07 1.94-1.62v-1l5-1v-1h9v-2c2.05-.23 4.1-.46 6.15-.68 1.86-.14 1.86-.14 2.85-1.32 2.67-.14 5.32-.04 8 0v-2c2.05-.23 4.1-.46 6.15-.68 1.86-.14 1.86-.14 2.85-1.32 2.58-.32 5.16-.51 7.75-.72 2.22-.04 2.22-.04 3.25-1.28 1.51-.35 3.04-.66 4.56-.94 3.21-.61 6.35-1.27 9.5-2.12 2.66-.69 5.21-1.12 7.94-1.38 4.51-.43 8.93-1.22 13.38-2.06.7-.13 1.4-.26 2.12-.4 2.92-.55 5.68-1.16 8.5-2.1 1.2-.17 2.39-.33 3.62-.5 3.21-.13 3.21-.13 4.38-1.5 2.67-.14 5.32-.04 8 0v-2Z" fill="#FF85A5"/>
    <path d="M727 314c6.34.06 12.15 1.71 18 4 .63.22 1.27.44 1.92.66 8.16 3.34 16.49 11.69 20.83 19.4 3.09 8.62 2.78 21.1-.37 29.63-4.3 8.7-9.84 15.29-19.12 18.67-3.81 1.08-7.51 1.13-11.45 1.08l-2.5-.02c-12.7-.32-22.89-4.32-31.7-13.52-5.85-6.93-8.11-15.99-7.35-24.97 1.09-6.52 3.14-11.17 6.74-16.68.52-.8 1.03-1.6 1.56-2.42.48-.61.95-1.21 1.44-1.83h2c.21-.74.41-1.49.62-2.25 1.8-3.58 3.98-4.71 7.38-6.75.64-.56 1.28-1.11 1.94-1.69 2.89-1.84 5.7-1.93 9.06-2.31l1-1Z" fill="#FF85A5"/>
    <path d="M526.25 302.688c.97-.02 1.95-.03 2.95-.05 7.02 0 13.13 1.2 19.8 3.36v2c1.3.25 1.3.25 2.63.5 5.84 2.6 8.47 7.27 10.81 13.07 1.96 10.66.12 20.39-5.41 29.62-2.89 4.01-5.98 7-10.03 9.81-.55.41-1.11.82-1.68 1.24-8.26 5.44-17.69 5.15-27.09 3.52-9.7-2.27-18.9-8.67-24.3-17.09-4.1-7.38-4.79-16.22-2.87-24.36 1.98-6.29 5.1-11.34 10.57-15.12.78-.39 1.56-.78 2.37-1.19.62-.51 1.24-1.03 1.87-1.56 6.12-4.14 13.28-3.77 20.38-3.75Zm3.75 61.31 1 2 2-2h-3Z" fill="#FF85A5"/>
    <path d="M522 301h5v1h-5v-1ZM643 514l3 1Z" fill="#FF85A5"/>
    <path d="m354 221 2 1Z" fill="#757575"/>
</svg>
